/* XPM */
static char * arrow48x84_xpm[] = {
"48 84 2 1",
" 	c #FFFFFFFFFFFF",
".	c #000000000000",
"                                                ",
"                                                ",
" . . . . . .                        . . . . . . ",
"  . . . . . .                      . . . . . .  ",
"   . . . . . .                    . . . . . .   ",
"    . . . . . .................... . . . . .    ",
"     . . . . . .................. . . . . .     ",
"      . . . . .................... . . . .      ",
"       . . . . .................. . . . .       ",
"        . . . .................... . . .        ",
"         . . . .................. . . .         ",
"          . . .................... . .          ",
"           . . .................. . .           ",
"            . .................... .            ",
"             . .................. .             ",
"              ....................              ",
"               ..................               ",
"               ..................               ",
"               ..................               ",
"               ..................               ",
"               ..................               ",
"               ..................               ",
"               ..................               ",
"               ..................               ",
"               ..................               ",
"               ..................               ",
"               ..................               ",
"               ..................               ",
"               ..................               ",
"               ..................               ",
"               ..................               ",
"               ..................               ",
"               ..................               ",
"               ..................               ",
"               ..................               ",
"               ..................               ",
"               ..................               ",
"               ..................               ",
"               ..................               ",
"               ..................               ",
"               ..................               ",
"               ..................               ",
"               ..................               ",
"               ..................               ",
"               ..................               ",
"               ..................               ",
"               ..................               ",
"               ..................               ",
"               ..................               ",
"               ..................               ",
"               ..................               ",
"               ..................               ",
"               ..................               ",
"               ..................               ",
"               ..................               ",
"               ..................               ",
"               ..................               ",
"               ..................               ",
"               ..................               ",
"               ..................               ",
"               ..................               ",
"        ................................        ",
"         ..............................         ",
"          ............................          ",
"           ..........................           ",
"            ........................            ",
"             ......................             ",
"              ....................              ",
"               ..................               ",
"                ................                ",
"                 ..............                 ",
"                  ............                  ",
"                   ..........                   ",
"                    ........                    ",
"                     ......                     ",
"                      ....                      ",
"                       ..                       ",
"                                                ",
"                                                ",
"                                                ",
"                                                ",
"                                                ",
"                                                ",
"                                                "};
