/* XPM */
static char *arrow_mtpaint_xpm[] = {
"128 64 2 1",
"0	c #FFFFFF",
"1	c #000000",
"00000000000000000000000000000000000000000000000000000000000000000000000000000000000000000000000000000000000000000000000000000000",
"00000000000000000000000000000000000000000000000000000000000000000000000000000000000000000000000000000000000000000000000000000000",
"00000000000000000000000000000000000000000000000000000000000000000000000000000000000000000000000000011000000000000000000000000000",
"00000000000000000000000000000000000000000000000000000000000000000000000000000000000000000000000000011100000000000000000000000000",
"00000000000000000000000000000000000000000000000000000000000000000000000000000000000000000000000000011110000000000000000000000000",
"00000000000000000000000000000000000000000000000000000000000000000000000000000000000000000000000000011111000000000000000000000000",
"00000000000000000000000000000000000000000000000000000000000000000000000000000000000000000000000000011111100000000000000000000000",
"01010101000000000000000000000000000000000000000000000000000000000000000000000000000000000000000000011111110000000000000000000000",
"00101010100000000000000000000000000000000000000000000000000000000000000000000000000000000000000000011111111000000000000000000000",
"01010101010000000000000000000000000000000000000000000000000000000000000000000000000000000000000000011111111100000000000000000000",
"00101010101000000000000000000000000000000000000000000000000000000000000000000000000000000000000000011111111110000000000000000000",
"01010101010100000000000000000000000000000000000000000000000000000000000000000000000000000000000000011111111111000000000000000000",
"00101010101010000000000000000000000000000000000000000000000000000000000000000000000000000000000000011111111111100000000000000000",
"01010101010101000000000000000000000000000000000000000000000000000000000000000000000000000000000000011111111111110000000000000000",
"00101010101010100000000000000000000000000000000000000000000000000000000000000000000000000000000000011111111111111000000000000000",
"00010101010101010000000000000000000000000000000000000000000000000000000000000000000000000000000000011111111111111100000000000000",
"00001010101010101000000000000000000000000000000000000000000000000000000000000000000000000000000000011111111111111110000000000000",
"00000101010101010100000000000000000000000000000000000000000000000000000000000000000000000000000000011111111111111111000000000000",
"00000010101010101010000000000000000000000000000000000000000000000000000000000000000000000000000000011111111111111111100000000000",
"00000001010101010101000000000000000000000000000000000000000000000000000000000000000000000000000000011111111111111111110000000000",
"00000000101010101010100000000000000000000000000000000000000000000000000000000000000000000000000000011111111111111111111000000000",
"00000000010101010101010000000000000000000000000000000000000000000000000000000000000000000000000000011111111111111111111100000000",
"00000000001010101010101000000000000000000000000000000000000000000000000000000000000000000000000000011111111111111111111110000000",
"01111111111111111111111111111111111111111111111111111111111111111111111111111111111111111111111111111111111111111111111111000000",
"01111111111111111111111111111111111111111111111111111111111111111111111111111111111111111111111111111111111111111111111111100000",
"01111111111111111111111111111111111111111111111111111111111111111111111111111111111111111111111111111111111111111111111111110000",
"01111111111111111111111111111111111111111111111111111111111111111111111111111111111111111111111111111111111111111111111111111000",
"01111111111111111111111111111111111111111111111111111111111111111111111111111111111111111111111111111111111111111111111111111100",
"01111111111111111111111111111111111111111111111111111111111111111111111111111111111111111111111111111111111111111111111111111110",
"01111111111111111111111111111111111111111111111111111111111111111111111111111111111111111111111111111111111111111111111111111110",
"01111111111111111111111111111111111111111111111111111111111111111111111111111111111111111111111111111111111111111111111111111110",
"01111111111111111111111111111111111111111111111111111111111111111111111111111111111111111111111111111111111111111111111111111110",
"01111111111111111111111111111111111111111111111111111111111111111111111111111111111111111111111111111111111111111111111111111110",
"01111111111111111111111111111111111111111111111111111111111111111111111111111111111111111111111111111111111111111111111111111110",
"01111111111111111111111111111111111111111111111111111111111111111111111111111111111111111111111111111111111111111111111111111110",
"01111111111111111111111111111111111111111111111111111111111111111111111111111111111111111111111111111111111111111111111111111110",
"01111111111111111111111111111111111111111111111111111111111111111111111111111111111111111111111111111111111111111111111111111100",
"01111111111111111111111111111111111111111111111111111111111111111111111111111111111111111111111111111111111111111111111111111000",
"01111111111111111111111111111111111111111111111111111111111111111111111111111111111111111111111111111111111111111111111111110000",
"01111111111111111111111111111111111111111111111111111111111111111111111111111111111111111111111111111111111111111111111111100000",
"01111111111111111111111111111111111111111111111111111111111111111111111111111111111111111111111111111111111111111111111111000000",
"00000000001010101010101000000000000000000000000000000000000000000000000000000000000000000000000000011111111111111111111110000000",
"00000000010101010101010000000000000000000000000000000000000000000000000000000000000000000000000000011111111111111111111100000000",
"00000000101010101010100000000000000000000000000000000000000000000000000000000000000000000000000000011111111111111111111000000000",
"00000001010101010101000000000000000000000000000000000000000000000000000000000000000000000000000000011111111111111111110000000000",
"00000010101010101010000000000000000000000000000000000000000000000000000000000000000000000000000000011111111111111111100000000000",
"00000101010101010100000000000000000000000000000000000000000000000000000000000000000000000000000000011111111111111111000000000000",
"00001010101010101000000000000000000000000000000000000000000000000000000000000000000000000000000000011111111111111110000000000000",
"00010101010101010000000000000000000000000000000000000000000000000000000000000000000000000000000000011111111111111100000000000000",
"00101010101010100000000000000000000000000000000000000000000000000000000000000000000000000000000000011111111111111000000000000000",
"01010101010101000000000000000000000000000000000000000000000000000000000000000000000000000000000000011111111111110000000000000000",
"00101010101010000000000000000000000000000000000000000000000000000000000000000000000000000000000000011111111111100000000000000000",
"01010101010100000000000000000000000000000000000000000000000000000000000000000000000000000000000000011111111111000000000000000000",
"00101010101000000000000000000000000000000000000000000000000000000000000000000000000000000000000000011111111110000000000000000000",
"01010101010000000000000000000000000000000000000000000000000000000000000000000000000000000000000000011111111100000000000000000000",
"00101010100000000000000000000000000000000000000000000000000000000000000000000000000000000000000000011111111000000000000000000000",
"01010101000000000000000000000000000000000000000000000000000000000000000000000000000000000000000000011111110000000000000000000000",
"00000000000000000000000000000000000000000000000000000000000000000000000000000000000000000000000000011111100000000000000000000000",
"00000000000000000000000000000000000000000000000000000000000000000000000000000000000000000000000000011111000000000000000000000000",
"00000000000000000000000000000000000000000000000000000000000000000000000000000000000000000000000000011110000000000000000000000000",
"00000000000000000000000000000000000000000000000000000000000000000000000000000000000000000000000000011100000000000000000000000000",
"00000000000000000000000000000000000000000000000000000000000000000000000000000000000000000000000000011000000000000000000000000000",
"00000000000000000000000000000000000000000000000000000000000000000000000000000000000000000000000000000000000000000000000000000000",
"00000000000000000000000000000000000000000000000000000000000000000000000000000000000000000000000000000000000000000000000000000000"
};
