/* XPM */
static char *cgram04_xpm[] = {
"16 16 2 1",
"0	c #FFFFFF",
"1	c #000000",
"0000000100000000",
"0011110000000010",
"0100011000000100",
"0100101000011000",
"0101001000011000",
"0110001000100000",
"0011110001000000",
"1000000000000000",
"0000001000001000",
"0000010000011000",
"0001100000101000",
"0001100001001000",
"0010000011111110",
"0100000000001000",
"0000000000001000",
"0000000000000000"
};
