/* XPM */
static char *cgram02_xpm[] = {
"16 16 2 1",
"0	c #FFFFFF",
"1	c #000000",
"0000000100000000",
"0011110000000010",
"0100011000000100",
"0100101000011000",
"0101001000011000",
"0110001000100000",
"0011110001000000",
"1000000000000000",
"0000001000111100",
"0000010001000010",
"0001100001000100",
"0001100000011000",
"0010000000100000",
"0100000001000010",
"0000000001111110",
"0000000000000000"
};
