/* XPM */
static char *cgram00_xpm[] = {
"16 16 2 1",
"0	c #FFFFFF",
"1	c #000000",
"0000000100000000",
"0011110000000010",
"0100011000000100",
"0100101000011000",
"0101001000011000",
"0110001000100000",
"0011110001000000",
"1000000000000001",
"0000001000111100",
"0000010001000110",
"0001100001001010",
"0001100001010010",
"0010000001100010",
"0100000000111100",
"0000000010000000",
"0000000000000000"
};
