/* XPM */
static char * GDTST48x84_xpm[] = {
"48 84 2 1",
" 	c #000000000000",
".	c #FFFFFFFFFFFF",
"        ........        ........        ........",
" ...... .      . ...... .      . ...... .      .",
" .    . . .... . .    . . .... . .    . . .... .",
" .    . . .... . .    . . .... . .    . . .... .",
" ...... .      . ...... .      . ...... .      .",
"        ........        ........        ........",
"........        ........        ........        ",
".      . ...... .      . ...... .      . ...... ",
". .... . .    . . .... . .    . . .... . .    . ",
". .... . .    . . .... . .    . . .... . .    . ",
".      . ...... .      . ...... .      . ...... ",
"........        ........        ........        ",
"        ........        ........        ........",
" ...... .      . ...... .      . ...... .      .",
" .    . . .... . .    . . .... . .    . . .... .",
" .    . . .... . .    . . .... . .    . . .... .",
" ...... .      . ...... .      . ...... .      .",
"        ........        ........        ........",
"........        ........        ........        ",
".      . ...... .      . ...... .      . ...... ",
". .... . .    . . .... . .    . . .... . .    . ",
". .... . .    . . .... . .    . . .... . .    . ",
".      . ...... .      . ...... .      . ...... ",
"........        ........        ........        ",
"        ........        ........        ........",
" ...... .      . ...... .      . ...... .      .",
" .    . . .... . .    . . .... . .    . . .... .",
" .    . . .... . .    . . .... . .    . . .... .",
" ...... .      . ...... .      . ...... .      .",
"        ........        ........        ........",
"........        ........        ........        ",
".      . ...... .      . ...... .      . ...... ",
". .... . .    . . .... . .    . . .... . .    . ",
". .... . .    . . .... . .    . . .... . .    . ",
".      . ...... .      . ...... .      . ...... ",
"........        ........        ........        ",
"        ........        ........        ........",
" ...... .      . ...... .      . ...... .      .",
" .    . . .... . .    . . .... . .    . . .... .",
" .    . . .... . .    . . .... . .    . . .... .",
" ...... .      . ...... .      . ...... .      .",
"        ........        ........        ........",
"........        ........        ........        ",
".      . ...... .      . ...... .      . ...... ",
". .... . .    . . .... . .    . . .... . .    . ",
". .... . .    . . .... . .    . . .... . .    . ",
".      . ...... .      . ...... .      . ...... ",
"........        ........        ........        ",
"        ........        ........        ........",
" ...... .      . ...... .      . ...... .      .",
" .    . . .... . .    . . .... . .    . . .... .",
" .    . . .... . .    . . .... . .    . . .... .",
" ...... .      . ...... .      . ...... .      .",
"        ........        ........        ........",
"........        ........        ........        ",
".      . ...... .      . ...... .      . ...... ",
". .... . .    . . .... . .    . . .... . .    . ",
". .... . .    . . .... . .    . . .... . .    . ",
".      . ...... .      . ...... .      . ...... ",
"........        ........        ........        ",
"        ........        ........        ........",
" ...... .      . ...... .      . ...... .      .",
" .    . . .... . .    . . .... . .    . . .... .",
" .    . . .... . .    . . .... . .    . . .... .",
" ...... .      . ...... .      . ...... .      .",
"        ........        ........        ........",
"........        ........        ........        ",
".      . ...... .      . ...... .      . ...... ",
". .... . .    . . .... . .    . . .... . .    . ",
". .... . .    . . .... . .    . . .... . .    . ",
".      . ...... .      . ...... .      . ...... ",
"........        ........        ........        ",
"        ........        ........        ........",
" ...... .      . ...... .      . ...... .      .",
" .    . . .... . .    . . .... . .    . . .... .",
" .    . . .... . .    . . .... . .    . . .... .",
" ...... .      . ...... .      . ...... .      .",
"        ........        ........        ........",
"........        ........        ........        ",
".      . ...... .      . ...... .      . ...... ",
". .... . .    . . .... . .    . . .... . .    . ",
". .... . .    . . .... . .    . . .... . .    . ",
".      . ...... .      . ...... .      . ...... ",
"........        ........        ........        "};
