#define raspberryx2_128x64_width 128
#define raspberryx2_128x64_height 64
static unsigned char raspberryx2_128x64_bits[] = {
  0x00, 0x00, 0x00, 0x00, 0x00, 0x00, 0x00, 0x00, 0x00, 0x00, 0x00, 0x00,
  0x00, 0x00, 0x00, 0x00, 0x00, 0x00, 0x00, 0x00, 0x00, 0x00, 0x00, 0x00,
  0x00, 0x00, 0x00, 0x00, 0x00, 0x00, 0x00, 0x00, 0x00, 0x00, 0xc0, 0x03,
  0x00, 0xe0, 0x01, 0x00, 0x00, 0x80, 0x07, 0x00, 0xc0, 0x03, 0x00, 0x00,
  0x00, 0x00, 0xf8, 0x7f, 0x00, 0xff, 0x1f, 0x00, 0x00, 0xf0, 0xff, 0x00,
  0xfe, 0x3f, 0x00, 0x00, 0x00, 0x00, 0x7f, 0xfe, 0x81, 0x1f, 0xff, 0x00,
  0x00, 0xfe, 0xfc, 0x03, 0x3f, 0xfe, 0x01, 0x00, 0x00, 0x00, 0x03, 0x80,
  0xc3, 0x01, 0xe0, 0x01, 0x00, 0x06, 0x00, 0x87, 0x03, 0xc0, 0x03, 0x00,
  0x00, 0x00, 0x01, 0x00, 0x66, 0x00, 0x80, 0x01, 0x00, 0x02, 0x00, 0xcc,
  0x00, 0x00, 0x03, 0x00, 0x00, 0x80, 0x01, 0x00, 0x7e, 0x00, 0x80, 0x01,
  0x00, 0x03, 0x00, 0xfc, 0x00, 0x00, 0x03, 0x00, 0x00, 0x80, 0x01, 0x00,
  0x3c, 0x00, 0x80, 0x01, 0x00, 0x03, 0x00, 0x78, 0x00, 0x00, 0x03, 0x00,
  0x00, 0x80, 0x01, 0x00, 0x1c, 0x00, 0x80, 0x01, 0x00, 0x03, 0x00, 0x38,
  0x00, 0x00, 0x03, 0x00, 0x00, 0x80, 0x01, 0x06, 0x1c, 0x30, 0xc0, 0x00,
  0x00, 0x03, 0x0c, 0x38, 0x60, 0x80, 0x01, 0x00, 0x00, 0x80, 0x03, 0x18,
  0x1c, 0x08, 0xc0, 0x00, 0x00, 0x07, 0x30, 0x38, 0x10, 0x80, 0x01, 0x00,
  0x00, 0x00, 0x03, 0x20, 0x1c, 0x06, 0xc0, 0x00, 0x00, 0x06, 0x40, 0x38,
  0x0c, 0x80, 0x01, 0x00, 0x00, 0x00, 0x06, 0xc0, 0xbe, 0x01, 0x60, 0x00,
  0x00, 0x0c, 0x80, 0x7d, 0x03, 0xc0, 0x00, 0x00, 0x00, 0x00, 0x06, 0x80,
  0xff, 0x00, 0x70, 0x00, 0x00, 0x0c, 0x00, 0xff, 0x01, 0xe0, 0x00, 0x00,
  0x00, 0x00, 0x0c, 0x00, 0xff, 0x00, 0x38, 0x00, 0x00, 0x18, 0x00, 0xfe,
  0x01, 0x70, 0x00, 0x00, 0x00, 0x00, 0x38, 0x80, 0xff, 0x00, 0x18, 0x00,
  0x00, 0x70, 0x00, 0xff, 0x01, 0x30, 0x00, 0x00, 0x00, 0x00, 0x38, 0xc0,
  0xff, 0x03, 0x0e, 0x00, 0x00, 0x70, 0x80, 0xff, 0x07, 0x1c, 0x00, 0x00,
  0x00, 0x00, 0xe0, 0xf1, 0xff, 0x87, 0x07, 0x00, 0x00, 0xc0, 0xe3, 0xff,
  0x0f, 0x0f, 0x00, 0x00, 0x00, 0x00, 0xe0, 0xff, 0xc1, 0xff, 0x03, 0x00,
  0x00, 0xc0, 0xff, 0x83, 0xff, 0x07, 0x00, 0x00, 0x00, 0x00, 0xf0, 0x70,
  0x00, 0x87, 0x07, 0x00, 0x00, 0xe0, 0xe1, 0x00, 0x0e, 0x0f, 0x00, 0x00,
  0x00, 0x00, 0x30, 0x20, 0x00, 0x06, 0x0f, 0x00, 0x00, 0x60, 0x40, 0x00,
  0x0c, 0x1e, 0x00, 0x00, 0x00, 0x00, 0x1c, 0x30, 0x00, 0x0c, 0x1c, 0x00,
  0x00, 0x38, 0x60, 0x00, 0x18, 0x38, 0x00, 0x00, 0x00, 0x00, 0x1c, 0x38,
  0x00, 0x0e, 0x18, 0x00, 0x00, 0x38, 0x70, 0x00, 0x1c, 0x30, 0x00, 0x00,
  0x00, 0x00, 0x0c, 0x7e, 0x00, 0x3e, 0x18, 0x00, 0x00, 0x18, 0xfc, 0x00,
  0x7c, 0x30, 0x00, 0x00, 0x00, 0x00, 0x0c, 0xff, 0xc1, 0x7f, 0x38, 0x00,
  0x00, 0x18, 0xfe, 0x83, 0xff, 0x70, 0x00, 0x00, 0x00, 0x00, 0x8e, 0x87,
  0xff, 0xe1, 0x30, 0x00, 0x00, 0x1c, 0x0f, 0xff, 0xc3, 0x61, 0x00, 0x00,
  0x00, 0x00, 0xc6, 0x03, 0x7e, 0x80, 0x33, 0x00, 0x00, 0x8c, 0x07, 0xfc,
  0x00, 0x67, 0x00, 0x00, 0x00, 0x00, 0xfe, 0x00, 0x3e, 0x80, 0x7f, 0x00,
  0x00, 0xfc, 0x01, 0x7c, 0x00, 0xff, 0x00, 0x00, 0x00, 0x00, 0x7f, 0x00,
  0x3c, 0x00, 0xfe, 0x00, 0x00, 0xfe, 0x00, 0x78, 0x00, 0xfc, 0x01, 0x00,
  0x00, 0x80, 0x7b, 0x00, 0x18, 0x00, 0xce, 0x01, 0x00, 0xf7, 0x00, 0x30,
  0x00, 0x9c, 0x03, 0x00, 0x00, 0xc0, 0x31, 0x00, 0x18, 0x00, 0x8e, 0x03,
  0x80, 0x63, 0x00, 0x30, 0x00, 0x1c, 0x07, 0x00, 0x00, 0xc0, 0x30, 0x00,
  0x3c, 0x00, 0x86, 0x03, 0x80, 0x61, 0x00, 0x78, 0x00, 0x0c, 0x07, 0x00,
  0x00, 0xe0, 0x30, 0x00, 0x3c, 0x00, 0x06, 0x03, 0xc0, 0x61, 0x00, 0x78,
  0x00, 0x0c, 0x06, 0x00, 0x00, 0x60, 0x30, 0x00, 0x3c, 0x00, 0x06, 0x03,
  0xc0, 0x60, 0x00, 0x78, 0x00, 0x0c, 0x06, 0x00, 0x00, 0x60, 0x30, 0x00,
  0x7c, 0x00, 0x06, 0x03, 0xc0, 0x60, 0x00, 0xf8, 0x00, 0x0c, 0x06, 0x00,
  0x00, 0x60, 0x70, 0x00, 0x7e, 0x00, 0x0e, 0x03, 0xc0, 0xe0, 0x00, 0xfc,
  0x00, 0x1c, 0x06, 0x00, 0x00, 0x60, 0x70, 0x00, 0xff, 0x00, 0x0f, 0x03,
  0xc0, 0xe0, 0x00, 0xfe, 0x01, 0x1e, 0x06, 0x00, 0x00, 0xe0, 0xf8, 0x80,
  0xff, 0x81, 0x0f, 0x03, 0xc0, 0xf1, 0x01, 0xff, 0x03, 0x1f, 0x06, 0x00,
  0x00, 0xe0, 0xf8, 0xc3, 0x81, 0xff, 0x8f, 0x03, 0xc0, 0xf1, 0x87, 0x03,
  0xff, 0x1f, 0x07, 0x00, 0x00, 0xc0, 0xf8, 0xff, 0x00, 0xff, 0x9f, 0x01,
  0x80, 0xf1, 0xff, 0x01, 0xfe, 0x3f, 0x03, 0x00, 0x00, 0x80, 0xff, 0x7f,
  0x00, 0xfe, 0xf0, 0x01, 0x00, 0xff, 0xff, 0x00, 0xfc, 0xe1, 0x03, 0x00,
  0x00, 0x80, 0x8f, 0x3f, 0x00, 0x7c, 0xe0, 0x00, 0x00, 0x1f, 0x7f, 0x00,
  0xf8, 0xc0, 0x01, 0x00, 0x00, 0x00, 0x07, 0x3f, 0x00, 0x3c, 0xe0, 0x00,
  0x00, 0x0e, 0x7e, 0x00, 0x78, 0xc0, 0x01, 0x00, 0x00, 0x00, 0x07, 0x3c,
  0x00, 0x3c, 0xe0, 0x00, 0x00, 0x0e, 0x78, 0x00, 0x78, 0xc0, 0x01, 0x00,
  0x00, 0x00, 0x07, 0x3c, 0x00, 0x1c, 0xe0, 0x00, 0x00, 0x0e, 0x78, 0x00,
  0x38, 0xc0, 0x01, 0x00, 0x00, 0x00, 0x07, 0x38, 0x00, 0x0c, 0x60, 0x00,
  0x00, 0x0e, 0x70, 0x00, 0x18, 0xc0, 0x00, 0x00, 0x00, 0x00, 0x06, 0x30,
  0x00, 0x0c, 0x60, 0x00, 0x00, 0x0c, 0x60, 0x00, 0x18, 0xc0, 0x00, 0x00,
  0x00, 0x00, 0x06, 0x70, 0x00, 0x06, 0x60, 0x00, 0x00, 0x0c, 0xe0, 0x00,
  0x0c, 0xc0, 0x00, 0x00, 0x00, 0x00, 0x0e, 0xf0, 0x00, 0x07, 0x70, 0x00,
  0x00, 0x1c, 0xe0, 0x01, 0x0e, 0xe0, 0x00, 0x00, 0x00, 0x00, 0x0c, 0xf0,
  0xc3, 0x07, 0x38, 0x00, 0x00, 0x18, 0xe0, 0x87, 0x0f, 0x70, 0x00, 0x00,
  0x00, 0x00, 0x38, 0xf0, 0xff, 0x0f, 0x1c, 0x00, 0x00, 0x70, 0xe0, 0xff,
  0x1f, 0x38, 0x00, 0x00, 0x00, 0x00, 0x70, 0xf8, 0xff, 0x0f, 0x0e, 0x00,
  0x00, 0xe0, 0xf0, 0xff, 0x1f, 0x1c, 0x00, 0x00, 0x00, 0x00, 0xe0, 0xff,
  0x00, 0xff, 0x03, 0x00, 0x00, 0xc0, 0xff, 0x01, 0xfe, 0x07, 0x00, 0x00,
  0x00, 0x00, 0x80, 0x3f, 0x00, 0xfc, 0x01, 0x00, 0x00, 0x00, 0x7f, 0x00,
  0xf8, 0x03, 0x00, 0x00, 0x00, 0x00, 0x00, 0x3f, 0x00, 0x7c, 0x00, 0x00,
  0x00, 0x00, 0x7e, 0x00, 0xf8, 0x00, 0x00, 0x00, 0x00, 0x00, 0x00, 0x3c,
  0x00, 0x1c, 0x00, 0x00, 0x00, 0x00, 0x78, 0x00, 0x38, 0x00, 0x00, 0x00,
  0x00, 0x00, 0x00, 0xf0, 0x00, 0x0f, 0x00, 0x00, 0x00, 0x00, 0xe0, 0x01,
  0x1e, 0x00, 0x00, 0x00, 0x00, 0x00, 0x00, 0xc0, 0xc1, 0x03, 0x00, 0x00,
  0x00, 0x00, 0x80, 0x83, 0x07, 0x00, 0x00, 0x00, 0x00, 0x00, 0x00, 0x80,
  0xff, 0x01, 0x00, 0x00, 0x00, 0x00, 0x00, 0xff, 0x03, 0x00, 0x00, 0x00,
  0x00, 0x00, 0x00, 0x00, 0x7e, 0x00, 0x00, 0x00, 0x00, 0x00, 0x00, 0xfc,
  0x00, 0x00, 0x00, 0x00, 0x00, 0x00, 0x00, 0x00, 0x00, 0x00, 0x00, 0x00,
  0x00, 0x00, 0x00, 0x00, 0x00, 0x00, 0x00, 0x00, 0x00, 0x00, 0x00, 0x00,
  0x00, 0x00, 0x00, 0x00, 0x00, 0x00, 0x00, 0x00, 0x00, 0x00, 0x00, 0x00,
  0x00, 0x00, 0x00, 0x00, 0x00, 0x00, 0x00, 0x00, 0x00, 0x00, 0x00, 0x00,
  0x00, 0x00, 0x00, 0x00, };
