/* XPM */
static char *raspberryx2_128x64_xpm[] = {
"128 64 2 1",
"0	c #FFFFFF",
"1	c #000000",
"00000000000000000000000000000000000000000000000000000000000000000000000000000000000000000000000000000000000000000000000000000000",
"00000000000000000000000000000000000000000000000000000000000000000000000000000000000000000000000000000000000000000000000000000000",
"00000000000000000000001111000000000000000000011110000000000000000000000000000001111000000000000000000011110000000000000000000000",
"00000000000000000001111111111110000000001111111111111000000000000000000000001111111111110000000001111111111111000000000000000000",
"00000000000000001111111001111111100000011111100011111111000000000000000001111111001111111100000011111100011111111000000000000000",
"00000000000000001100000000000001110000111000000000000111100000000000000001100000000000001110000111000000000000111100000000000000",
"00000000000000001000000000000000011001100000000000000001100000000000000001000000000000000011001100000000000000001100000000000000",
"00000000000000011000000000000000011111100000000000000001100000000000000011000000000000000011111100000000000000001100000000000000",
"00000000000000011000000000000000001111000000000000000001100000000000000011000000000000000001111000000000000000001100000000000000",
"00000000000000011000000000000000001110000000000000000001100000000000000011000000000000000001110000000000000000001100000000000000",
"00000000000000011000000001100000001110000000110000000011000000000000000011000000001100000001110000000110000000011000000000000000",
"00000000000000011100000000011000001110000001000000000011000000000000000011100000000011000001110000001000000000011000000000000000",
"00000000000000001100000000000100001110000110000000000011000000000000000001100000000000100001110000110000000000011000000000000000",
"00000000000000000110000000000011011111011000000000000110000000000000000000110000000000011011111011000000000000110000000000000000",
"00000000000000000110000000000001111111110000000000001110000000000000000000110000000000001111111110000000000001110000000000000000",
"00000000000000000011000000000000111111110000000000011100000000000000000000011000000000000111111110000000000011100000000000000000",
"00000000000000000001110000000001111111110000000000011000000000000000000000001110000000001111111110000000000011000000000000000000",
"00000000000000000001110000000011111111111100000001110000000000000000000000001110000000011111111111100000001110000000000000000000",
"00000000000000000000011110001111111111111110000111100000000000000000000000000011110001111111111111110000111100000000000000000000",
"00000000000000000000011111111111100000111111111111000000000000000000000000000011111111111100000111111111111000000000000000000000",
"00000000000000000000111100001110000000001110000111100000000000000000000000000111100001110000000001110000111100000000000000000000",
"00000000000000000000110000000100000000000110000011110000000000000000000000000110000000100000000000110000011110000000000000000000",
"00000000000000000011100000001100000000000011000000111000000000000000000000011100000001100000000000011000000111000000000000000000",
"00000000000000000011100000011100000000000111000000011000000000000000000000011100000011100000000000111000000011000000000000000000",
"00000000000000000011000001111110000000000111110000011000000000000000000000011000001111110000000000111110000011000000000000000000",
"00000000000000000011000011111111100000111111111000011100000000000000000000011000011111111100000111111111000011100000000000000000",
"00000000000000000111000111100001111111111000011100001100000000000000000000111000111100001111111111000011100001100000000000000000",
"00000000000000000110001111000000011111100000000111001100000000000000000000110001111000000011111100000000111001100000000000000000",
"00000000000000000111111100000000011111000000000111111110000000000000000000111111100000000011111000000000111111110000000000000000",
"00000000000000001111111000000000001111000000000001111111000000000000000001111111000000000001111000000000001111111000000000000000",
"00000000000000011101111000000000000110000000000001110011100000000000000011101111000000000000110000000000001110011100000000000000",
"00000000000000111000110000000000000110000000000001110001110000000000000111000110000000000000110000000000001110001110000000000000",
"00000000000000110000110000000000001111000000000001100001110000000000000110000110000000000001111000000000001100001110000000000000",
"00000000000001110000110000000000001111000000000001100000110000000000001110000110000000000001111000000000001100000110000000000000",
"00000000000001100000110000000000001111000000000001100000110000000000001100000110000000000001111000000000001100000110000000000000",
"00000000000001100000110000000000001111100000000001100000110000000000001100000110000000000001111100000000001100000110000000000000",
"00000000000001100000111000000000011111100000000001110000110000000000001100000111000000000011111100000000001110000110000000000000",
"00000000000001100000111000000000111111110000000011110000110000000000001100000111000000000111111110000000011110000110000000000000",
"00000000000001110001111100000001111111111000000111110000110000000000001110001111100000001111111111000000111110000110000000000000",
"00000000000001110001111111000011100000011111111111110001110000000000001110001111111000011100000011111111111110001110000000000000",
"00000000000000110001111111111111000000001111111111111001100000000000000110001111111111111000000001111111111111001100000000000000",
"00000000000000011111111111111110000000000111111100001111100000000000000011111111111111110000000000111111100001111100000000000000",
"00000000000000011111000111111100000000000011111000000111000000000000000011111000111111100000000000011111000000111000000000000000",
"00000000000000001110000011111100000000000011110000000111000000000000000001110000011111100000000000011110000000111000000000000000",
"00000000000000001110000000111100000000000011110000000111000000000000000001110000000111100000000000011110000000111000000000000000",
"00000000000000001110000000111100000000000011100000000111000000000000000001110000000111100000000000011100000000111000000000000000",
"00000000000000001110000000011100000000000011000000000110000000000000000001110000000011100000000000011000000000110000000000000000",
"00000000000000000110000000001100000000000011000000000110000000000000000000110000000001100000000000011000000000110000000000000000",
"00000000000000000110000000001110000000000110000000000110000000000000000000110000000001110000000000110000000000110000000000000000",
"00000000000000000111000000001111000000001110000000001110000000000000000000111000000001111000000001110000000001110000000000000000",
"00000000000000000011000000001111110000111110000000011100000000000000000000011000000001111110000111110000000011100000000000000000",
"00000000000000000001110000001111111111111111000000111000000000000000000000001110000001111111111111111000000111000000000000000000",
"00000000000000000000111000011111111111111111000001110000000000000000000000000111000011111111111111111000001110000000000000000000",
"00000000000000000000011111111111000000001111111111000000000000000000000000000011111111111000000001111111111000000000000000000000",
"00000000000000000000000111111100000000000011111110000000000000000000000000000000111111100000000000011111110000000000000000000000",
"00000000000000000000000011111100000000000011111000000000000000000000000000000000011111100000000000011111000000000000000000000000",
"00000000000000000000000000111100000000000011100000000000000000000000000000000000000111100000000000011100000000000000000000000000",
"00000000000000000000000000001111000000001111000000000000000000000000000000000000000001111000000001111000000000000000000000000000",
"00000000000000000000000000000011100000111100000000000000000000000000000000000000000000011100000111100000000000000000000000000000",
"00000000000000000000000000000001111111111000000000000000000000000000000000000000000000001111111111000000000000000000000000000000",
"00000000000000000000000000000000011111100000000000000000000000000000000000000000000000000011111100000000000000000000000000000000",
"00000000000000000000000000000000000000000000000000000000000000000000000000000000000000000000000000000000000000000000000000000000",
"00000000000000000000000000000000000000000000000000000000000000000000000000000000000000000000000000000000000000000000000000000000",
"00000000000000000000000000000000000000000000000000000000000000000000000000000000000000000000000000000000000000000000000000000000"
};
