#define raspberry_64x64_width 64
#define raspberry_64x64_height 64
static unsigned char raspberry_64x64_bits[] = {
  0x00, 0x00, 0x00, 0x00, 0x00, 0x00, 0x00, 0x00, 0x00, 0x00, 0x00, 0x00,
  0x00, 0x00, 0x00, 0x00, 0x00, 0x00, 0x00, 0x00, 0x00, 0x00, 0x00, 0x00,
  0x00, 0x00, 0x3c, 0x00, 0x00, 0x1e, 0x00, 0x00, 0x00, 0x80, 0xff, 0x07,
  0xf0, 0xff, 0x01, 0x00, 0x00, 0xf0, 0xe7, 0x1f, 0xf8, 0xf1, 0x0f, 0x00,
  0x00, 0x30, 0x00, 0x38, 0x1c, 0x00, 0x1e, 0x00, 0x00, 0x10, 0x00, 0x60,
  0x06, 0x00, 0x18, 0x00, 0x00, 0x18, 0x00, 0xe0, 0x07, 0x00, 0x18, 0x00,
  0x00, 0x18, 0x00, 0xc0, 0x03, 0x00, 0x18, 0x00, 0x00, 0x18, 0x00, 0xc0,
  0x01, 0x00, 0x18, 0x00, 0x00, 0x18, 0x60, 0xc0, 0x01, 0x03, 0x0c, 0x00,
  0x00, 0x38, 0x80, 0xc1, 0x81, 0x00, 0x0c, 0x00, 0x00, 0x30, 0x00, 0xc2,
  0x61, 0x00, 0x0c, 0x00, 0x00, 0x60, 0x00, 0xec, 0x1b, 0x00, 0x06, 0x00,
  0x00, 0x60, 0x00, 0xf8, 0x0f, 0x00, 0x07, 0x00, 0x00, 0xc0, 0x00, 0xf0,
  0x0f, 0x80, 0x03, 0x00, 0x00, 0x80, 0x03, 0xf8, 0x0f, 0x80, 0x01, 0x00,
  0x00, 0x80, 0x03, 0xfc, 0x3f, 0xe0, 0x00, 0x00, 0x00, 0x00, 0x1e, 0xff,
  0x7f, 0x78, 0x00, 0x00, 0x00, 0x00, 0xfe, 0x1f, 0xfc, 0x3f, 0x00, 0x00,
  0x00, 0x00, 0x0f, 0x07, 0x70, 0x78, 0x00, 0x00, 0x00, 0x00, 0x03, 0x02,
  0x60, 0xf0, 0x00, 0x00, 0x00, 0xc0, 0x01, 0x03, 0xc0, 0xc0, 0x01, 0x00,
  0x00, 0xc0, 0x81, 0x03, 0xe0, 0x80, 0x01, 0x00, 0x00, 0xc0, 0xe0, 0x07,
  0xe0, 0x83, 0x01, 0x00, 0x00, 0xc0, 0xf0, 0x1f, 0xfc, 0x87, 0x03, 0x00,
  0x00, 0xe0, 0x78, 0xf8, 0x1f, 0x0e, 0x03, 0x00, 0x00, 0x60, 0x3c, 0xe0,
  0x07, 0x38, 0x03, 0x00, 0x00, 0xe0, 0x0f, 0xe0, 0x03, 0xf8, 0x07, 0x00,
  0x00, 0xf0, 0x07, 0xc0, 0x03, 0xe0, 0x0f, 0x00, 0x00, 0xb8, 0x07, 0x80,
  0x01, 0xe0, 0x1c, 0x00, 0x00, 0x1c, 0x03, 0x80, 0x01, 0xe0, 0x38, 0x00,
  0x00, 0x0c, 0x03, 0xc0, 0x03, 0x60, 0x38, 0x00, 0x00, 0x0e, 0x03, 0xc0,
  0x03, 0x60, 0x30, 0x00, 0x00, 0x06, 0x03, 0xc0, 0x03, 0x60, 0x30, 0x00,
  0x00, 0x06, 0x03, 0xc0, 0x07, 0x60, 0x30, 0x00, 0x00, 0x06, 0x07, 0xe0,
  0x07, 0xe0, 0x30, 0x00, 0x00, 0x06, 0x07, 0xf0, 0x0f, 0xf0, 0x30, 0x00,
  0x00, 0x8e, 0x0f, 0xf8, 0x1f, 0xf8, 0x30, 0x00, 0x00, 0x8e, 0x3f, 0x1c,
  0xf8, 0xff, 0x38, 0x00, 0x00, 0x8c, 0xff, 0x0f, 0xf0, 0xff, 0x19, 0x00,
  0x00, 0xf8, 0xff, 0x07, 0xe0, 0x0f, 0x1f, 0x00, 0x00, 0xf8, 0xf8, 0x03,
  0xc0, 0x07, 0x0e, 0x00, 0x00, 0x70, 0xf0, 0x03, 0xc0, 0x03, 0x0e, 0x00,
  0x00, 0x70, 0xc0, 0x03, 0xc0, 0x03, 0x0e, 0x00, 0x00, 0x70, 0xc0, 0x03,
  0xc0, 0x01, 0x0e, 0x00, 0x00, 0x70, 0x80, 0x03, 0xc0, 0x00, 0x06, 0x00,
  0x00, 0x60, 0x00, 0x03, 0xc0, 0x00, 0x06, 0x00, 0x00, 0x60, 0x00, 0x07,
  0x60, 0x00, 0x06, 0x00, 0x00, 0xe0, 0x00, 0x0f, 0x70, 0x00, 0x07, 0x00,
  0x00, 0xc0, 0x00, 0x3f, 0x7c, 0x80, 0x03, 0x00, 0x00, 0x80, 0x03, 0xff,
  0xff, 0xc0, 0x01, 0x00, 0x00, 0x00, 0x87, 0xff, 0xff, 0xe0, 0x00, 0x00,
  0x00, 0x00, 0xfe, 0x0f, 0xf0, 0x3f, 0x00, 0x00, 0x00, 0x00, 0xf8, 0x03,
  0xc0, 0x1f, 0x00, 0x00, 0x00, 0x00, 0xf0, 0x03, 0xc0, 0x07, 0x00, 0x00,
  0x00, 0x00, 0xc0, 0x03, 0xc0, 0x01, 0x00, 0x00, 0x00, 0x00, 0x00, 0x0f,
  0xf0, 0x00, 0x00, 0x00, 0x00, 0x00, 0x00, 0x1c, 0x3c, 0x00, 0x00, 0x00,
  0x00, 0x00, 0x00, 0xf8, 0x1f, 0x00, 0x00, 0x00, 0x00, 0x00, 0x00, 0xe0,
  0x07, 0x00, 0x00, 0x00, 0x00, 0x00, 0x00, 0x00, 0x00, 0x00, 0x00, 0x00,
  0x00, 0x00, 0x00, 0x00, 0x00, 0x00, 0x00, 0x00, };
