/* XPM */
static char *qc12864b_pixel8_buffer_xpm[] = {
"128 64 2 1",
"0      c #FFFFFF",
"1      c #000000",
"11111111111111110000000000000000111111111111111100000000000000001111111111111111000000000000000011111111111111110000000000000000",
"11111111111111110111111111111110100000000000000101111111111111101000000000000001011111111111111010000000000000010111111111111110",
"11111111111111110111111111111110101111111111110101000000000000101011111111111101010000000000001010111111111111010100000000000010",
"11111111111111110111111111111110101111111111110101011111111110101010000000000101010111111111101010100000000001010101111111111010",
"11111111111111110111111111111110101111111111110101011111111110101010111111110101010100000000101010101111111101010101000000001010",
"11111111111111110111111111111110101111111111110101011111111110101010111111110101010101111110101010101000000101010101011111101010",
"11111111111111110111111111111110101111111111110101011111111110101010111111110101010101111110101010101011110101010101010000101010",
"11111111111111110111111111111110101111111111110101011111111110101010111111110101010101111110101010101011110101010101010110101010",
"11111111111111110111111111111110101111111111110101011111111110101010111111110101010101111110101010101011110101010101010110101010",
"11111111111111110111111111111110101111111111110101011111111110101010111111110101010101111110101010101011110101010101010000101010",
"11111111111111110111111111111110101111111111110101011111111110101010111111110101010101111110101010101000000101010101011111101010",
"11111111111111110111111111111110101111111111110101011111111110101010111111110101010100000000101010101111111101010101000000001010",
"11111111111111110111111111111110101111111111110101011111111110101010000000000101010111111111101010100000000001010101111111111010",
"11111111111111110111111111111110101111111111110101000000000000101011111111111101010000000000001010111111111111010100000000000010",
"11111111111111110111111111111110100000000000000101111111111111101000000000000001011111111111111010000000000000010111111111111110",
"11111111111111110000000000000000111111111111111100000000000000001111111111111111000000000000000011111111111111110000000000000000",
"00000000000000001111111111111111000000000000000011111111111111110000000000000000111111111111111100000000000000001111111111111111",
"01111111111111101000000000000001011111111111111010000000000000010111111111111110100000000000000101111111111111101000000000000001",
"01111111111111101011111111111101010000000000001010111111111111010100000000000010101111111111110101000000000000101011111111111101",
"01111111111111101011111111111101010111111111101010100000000001010101111111111010101000000000010101011111111110101010000000000101",
"01111111111111101011111111111101010111111111101010101111111101010101000000001010101011111111010101010000000010101010111111110101",
"01111111111111101011111111111101010111111111101010101111111101010101011111101010101010000001010101010111111010101010100000010101",
"01111111111111101011111111111101010111111111101010101111111101010101011111101010101010111101010101010100001010101010101111010101",
"01111111111111101011111111111101010111111111101010101111111101010101011111101010101010111101010101010101101010101010101001010101",
"01111111111111101011111111111101010111111111101010101111111101010101011111101010101010111101010101010101101010101010101001010101",
"01111111111111101011111111111101010111111111101010101111111101010101011111101010101010111101010101010100001010101010101111010101",
"01111111111111101011111111111101010111111111101010101111111101010101011111101010101010000001010101010111111010101010100000010101",
"01111111111111101011111111111101010111111111101010101111111101010101000000001010101011111111010101010000000010101010111111110101",
"01111111111111101011111111111101010111111111101010100000000001010101111111111010101000000000010101011111111110101010000000000101",
"01111111111111101011111111111101010000000000001010111111111111010100000000000010101111111111110101000000000000101011111111111101",
"01111111111111101000000000000001011111111111111010000000000000010111111111111110100000000000000101111111111111101000000000000001",
"00000000000000001111111111111111000000000000000011111111111111110000000000000000111111111111111100000000000000001111111111111111",
"11111111111111110000000000000000111111111111111100000000000000001111111111111111000000000000000011111111111111110000000000000000",
"10000000000000010111111111111110100000000000000101111111111111101000000000000001011111111111111010000000000000010111111111111110",
"10111111111111010100000000000010101111111111110101000000000000101011111111111101010000000000001010111111111111010100000000000010",
"10111111111111010101111111111010101000000000010101011111111110101010000000000101010111111111101010100000000001010101111111111010",
"10111111111111010101111111111010101011111111010101010000000010101010111111110101010100000000101010101111111101010101000000001010",
"10111111111111010101111111111010101011111111010101010111111010101010100000010101010101111110101010101000000101010101011111101010",
"10111111111111010101111111111010101011111111010101010111111010101010101111010101010101000010101010101011110101010101011111101010",
"10111111111111010101111111111010101011111111010101010111111010101010101111010101010101011010101010101011110101010101011111101010",
"10111111111111010101111111111010101011111111010101010111111010101010101111010101010101011010101010101011110101010101011111101010",
"10111111111111010101111111111010101011111111010101010111111010101010101111010101010101000010101010101011110101010101011111101010",
"10111111111111010101111111111010101011111111010101010111111010101010100000010101010101111110101010101000000101010101011111101010",
"10111111111111010101111111111010101011111111010101010000000010101010111111110101010100000000101010101111111101010101000000001010",
"10111111111111010101111111111010101000000000010101011111111110101010000000000101010111111111101010100000000001010101111111111010",
"10111111111111010100000000000010101111111111110101000000000000101011111111111101010000000000001010111111111111010100000000000010",
"10000000000000010111111111111110100000000000000101111111111111101000000000000001011111111111111010000000000000010111111111111110",
"11111111111111110000000000000000111111111111111100000000000000001111111111111111000000000000000011111111111111110000000000000000",
"00000000000000001111111111111111000000000000000011111111111111110000000000000000111111111111111100000000000000001111111111111111",
"01111111111111101000000000000001011111111111111010000000000000010111111111111110100000000000000101111111111111101000000000000001",
"01000000000000101011111111111101010000000000001010111111111111010100000000000010101111111111110101000000000000101011111111111101",
"01011111111110101010000000000101010111111111101010100000000001010101111111111010101000000000010101011111111110101010000000000101",
"01011111111110101010111111110101010100000000101010101111111101010101000000001010101011111111010101010000000010101010111111110101",
"01011111111110101010111111110101010101111110101010101000000101010101011111101010101010000001010101010111111010101010111111110101",
"01011111111110101010111111110101010101111110101010101011110101010101010000101010101010111101010101010111111010101010111111110101",
"01011111111110101010111111110101010101111110101010101011110101010101010110101010101010100101010101010111111010101010111111110101",
"01011111111110101010111111110101010101111110101010101011110101010101010110101010101010100101010101010111111010101010111111110101",
"01011111111110101010111111110101010101111110101010101011110101010101010000101010101010111101010101010111111010101010111111110101",
"01011111111110101010111111110101010101111110101010101000000101010101011111101010101010000001010101010111111010101010111111110101",
"01011111111110101010111111110101010100000000101010101111111101010101000000001010101011111111010101010000000010101010111111110101",
"01011111111110101010000000000101010111111111101010100000000001010101111111111010101000000000010101011111111110101010000000000101",
"01000000000000101011111111111101010000000000001010111111111111010100000000000010101111111111110101000000000000101011111111111101",
"01111111111111101000000000000001011111111111111010000000000000010111111111111110100000000000000101111111111111101000000000000001",
"00000000000000001111111111111111000000000000000011111111111111110000000000000000111111111111111100000000000000001111111111111111"
};
